<?xml version="1.0" encoding="UTF-8" standalone="no"?>
<!-- Uploaded to: SVG Repo, www.svgrepo.com, Generator: SVG Repo Mixer Tools -->

<svg
   width="971"
   height="971"
   viewBox="0 0 1242.88 1242.8799"
   class="icon"
   version="1.1"
   id="svg7"
   sodipodi:docname="logo.svg"
   xml:space="preserve"
   inkscape:version="1.4.2 (ebf0e940d0, 2025-05-08)"
   inkscape:export-filename="logo.png"
   inkscape:export-xdpi="83.765"
   inkscape:export-ydpi="83.765"
   xmlns:inkscape="http://www.inkscape.org/namespaces/inkscape"
   xmlns:sodipodi="http://sodipodi.sourceforge.net/DTD/sodipodi-0.dtd"
   xmlns="http://www.w3.org/2000/svg"
   xmlns:svg="http://www.w3.org/2000/svg"><defs
     id="defs7" /><sodipodi:namedview
     id="namedview7"
     pagecolor="#ffffff"
     bordercolor="#666666"
     borderopacity="1.0"
     inkscape:showpageshadow="2"
     inkscape:pageopacity="0.0"
     inkscape:pagecheckerboard="0"
     inkscape:deskcolor="#d1d1d1"
     inkscape:zoom="0.24875"
     inkscape:cx="910.55276"
     inkscape:cy="647.23618"
     inkscape:window-width="1920"
     inkscape:window-height="1007"
     inkscape:window-x="0"
     inkscape:window-y="36"
     inkscape:window-maximized="1"
     inkscape:current-layer="svg7" /><g
     id="g11"><g
       id="g7"
       transform="translate(-296.09381,181.72784)"><path
         d="M 704,917.33333 H 362.66667 V 426.66667 c 0,-82.47467 64.93866,-155.84 147.41333,-155.84 h 42.66667 c 82.47466,0 151.25333,73.344 151.25333,155.84 z"
         fill="#ffc107"
         id="path1" /><path
         d="m 469.33333,234.66667 h 128 v 42.66666 h -128 z"
         fill="#9fa8da"
         id="path2" /><path
         d="M 576,256 H 490.66667 V 85.333333 a 42.666667,42.666667 0 0 1 85.33333,0 z"
         fill="#9fa8da"
         id="path3" /><path
         d="m 533.33333,42.666667 a 42.666667,42.666667 0 1 0 -0.0213,85.312003 42.666667,42.666667 0 0 0 0.0213,-85.312003 z m 0,64.000003 a 21.333335,21.333335 0 1 1 0,-42.66667 21.333335,21.333335 0 1 1 0,42.66667 z m -106.66666,42.66666 h 64 V 192 h -64 z m 149.33333,0 h 64 V 192 h -64 z"
         fill="#7986cb"
         id="path4" /><path
         d="M 552.74667,313.49333 H 510.08 c -56.78933,0 -104.74667,51.84 -104.74667,113.17334 v 483.84 H 448 v -483.84 c 0,-61.33334 47.95733,-113.17334 104.74667,-113.17334 z"
         fill="#ffee58"
         id="path5"
         sodipodi:nodetypes="cssccsc" /><path
         d="M 426.66667,192 C 426.66667,203.79733 320,213.33333 320,213.33333 c -11.78207,0 -21.33333,-9.55126 -21.33333,-21.33333 V 149.33333 C 298.66667,137.55126 308.21793,128 320,128 c 0,0 106.66667,9.536 106.66667,21.33333 z m -64,718.50667 H 704 V 1059.84 H 362.66667 Z"
         fill="#37474f"
         id="path6"
         sodipodi:nodetypes="scsscssccccc" /><path
         d="M 405.33333,910.528 H 448 v 106.6667 h -42.66667 z"
         fill="#78909c"
         id="path7" /></g></g><g
     id="g10"
     transform="translate(12.608372,46.311556)"><path
       d="m 577.15135,192.0109 h 128 v 42.66666 h -128 z"
       fill="#9fa8da"
       id="path2-6" /><path
       d="M 683.81802,213.34423 H 598.48469 V 42.677566 a 42.666667,42.666667 0 0 1 85.33333,0 z"
       fill="#9fa8da"
       id="path3-5" /><path
       d="m 641.15135,0.01090628 a 42.666667,42.666667 0 1 0 -0.0213,85.31199772 42.666667,42.666667 0 0 0 0.0213,-85.31199772 z m 0,63.99999972 a 21.333335,21.333335 0 1 1 0,-42.66667 21.333335,21.333335 0 1 1 0,42.66667 z M 534.48469,106.67756 h 64 v 42.66667 h -64 z m 149.33333,0 h 64 v 42.66667 h -64 z"
       fill="#7986cb"
       id="path4-8" /><g
       id="g8"
       transform="matrix(1.120603,0,0,1.2706156,-132.97498,-125.0613)"><path
         d="M 866.13976,924.50751 H 524.80643 V 433.84085 c 0,-82.47467 64.93866,-155.84 147.41333,-155.84 h 42.66667 c 82.47466,0 151.25333,73.344 151.25333,155.84 z"
         fill="#ffc107"
         id="path1-2" /><path
         d="m 714.88643,320.66751 h -42.66667 c -56.78933,0 -104.74667,51.84 -104.74667,113.17334 v 483.84 h 42.66667 v -483.84 c 0,-61.33334 47.95733,-113.17334 104.74667,-113.17334 z"
         fill="#ffee58"
         id="path5-7"
         sodipodi:nodetypes="cssccsc" /></g><path
       d="m 455.12469,1045.3786 h 379.92629 v 149.3333 H 455.12469 Z"
       id="path8"
       style="stroke-width:1.05502" /><path
       d="m 534.48469,149.34423 c 0,11.79733 -106.66667,21.33333 -106.66667,21.33333 -11.78207,0 -21.33333,-9.55126 -21.33333,-21.33333 v -42.66667 c 0,-11.782066 9.55126,-21.333326 21.33333,-21.333326 0,0 106.66667,9.536 106.66667,21.333326 z"
       id="path6-9" /><path
       d="m 505.50994,1045.3999 h 42.66667 v 106.6667 h -42.66667 z"
       fill="#78909c"
       id="path7-6" /></g><path
     style="fill:#405876;fill-opacity:1"
     d="m 947.9211,409.32957 c -12.63446,4.9112 -23.1887,9.1464 -23.45386,9.4116 -0.26517,0.2651 -1.35112,4.6807 -2.41322,9.8123 -5.9485,28.7406 -19.78795,50.806 -40.44117,64.4787 -4.06594,2.6917 -7.36,5.8271 -7.36,7.0053 0,1.1731 2.55643,18.2275 5.68097,37.8988 3.12453,19.6713 10.05949,64.27786 15.41101,99.12586 26.46248,172.318 41.07733,246.8311 65.2147,332.4939 8.19059,29.0681 29.59601,90.26777 34.00466,97.22177 1.99944,3.1538 1.28165,-2.2448 -4.29127,-32.2756 -5.58116,-30.0752 -11.5233,-71.60397 -14.83505,-103.68007 -3.85527,-37.3402 -6.79787,-83.5506 -5.90935,-92.8 0.84659,-8.813 3.81132,-19.3545 6.69092,-23.7907 1.54573,-2.3813 0.82013,-5.0868 -6.69415,-24.96 -27.22921,-72.014 -51.99014,-152.4765 -76.07931,-247.22546 l -10.00092,-39.3362 6.14097,-4.5079 c 8.66694,-6.3621 21.1595,-20.0669 25.82093,-28.3265 2.17581,-3.8553 4.11554,-6.8395 4.31051,-6.6314 0.19496,0.208 1.3201,8.1542 2.50029,17.6582 11.47177,92.38096 28.8597,182.29456 48.67212,251.68526 4.90872,17.1922 16.31288,53.0842 19.9623,62.8268 l 1.06084,2.832 7.13518,-3.2666 c 8.1222,-3.7185 23.4009,-6.767 34.2446,-6.8328 4.048,-0.025 7.36,-0.1994 7.36,-0.3884 0,-0.189 -2.6062,-13.2256 -5.7915,-28.9702 -12.1602,-60.1061 -21.0863,-112.8444 -31.8679,-188.2861 -9.87639,-69.10686 -20.58219,-152.10496 -19.72979,-152.95736 0.32224,-0.3222 5.15865,1.4103 10.74757,3.8501 5.58892,2.4399 11.16972,4.4431 12.40172,4.4517 1.7775,0.012 2.2426,1.1388 2.2527,5.4556 0.073,31.323 4.1178,108.8118 7.7109,147.73236 8.9601,97.0529 20.4143,141.3084 37.8313,146.1681 19.3344,5.3947 31.8128,-25.9788 41.4206,-104.1405 6.3424,-51.5969 11.5302,-132.38016 11.5722,-180.20016 0.011,-11.9929 0.3055,-13.8999 2.2522,-14.5619 1.232,-0.4189 6.992,-2.6544 12.8,-4.9676 l 10.56,-4.2058 v 3.3265 c 0,4.588 -11.6392,94.5489 -18.6682,144.28896 -11.1406,78.8354 -21.698,141.8591 -32.6025,194.6237 -2.9025,14.045 -5.3701,26.1047 -5.4833,26.7994 -0.1143,0.7004 4.9251,1.6476 11.314,2.1265 12.6465,0.948 21.4634,2.6899 28.5033,5.6314 2.5244,1.0548 5.011,1.4726 5.5257,0.9284 2.0732,-2.192 20.3807,-64.2075 29.7656,-100.8294 13.2153,-51.5687 27.9582,-125.5705 37.8682,-190.07996 2.866,-18.656 5.5438,-35.8846 5.9507,-38.2858 l 0.7397,-4.3658 3.3245,5.6458 c 7.7858,13.2224 22.3806,28.9076 31.806,34.1823 1.9163,1.0724 1.7419,2.769 -1.9487,18.9607 -11.3456,49.77556 -31.0989,123.16036 -45.0983,167.54276 -3.5529,11.264 -7.0391,22.496 -7.747,24.96 -2.6404,9.1905 -21.885,62.3946 -29.1568,80.6077 l -7.5379,18.8794 3.234,8.0067 c 4.4656,11.0555 5.0175,24.8054 2.4673,61.4662 -3.6644,52.6773 -10.2127,105.1478 -19.3765,155.26027 -4.4427,24.2947 -5.3799,32.7959 -3.2036,29.0598 2.2135,-3.8001 15.2735,-39.4868 22.3327,-61.0246 27.9416,-85.25027 46.6242,-176.05137 76.9723,-374.10117 12.574,-82.05706 19.3909,-125.46896 20.4167,-130.01916 0.4439,-1.9691 -0.7973,-3.458 -5.2103,-6.2498 -21.3777,-13.5246 -36.6127,-36.8889 -42.255,-64.8023 -2.0931,-10.3551 -2.5068,-11.2031 -6.1681,-12.6445 -2.1585,-0.8497 -12.999,-4.9611 -24.0899,-9.1365 l -20.1655,-7.5916 -6.4399,3.9625 c -14.3295,8.817 -36.3884,16.3472 -56.0722,19.1412 -16.9236,2.4022 -47.9631,0.9098 -63.0259,-3.0303 -15.3653,-4.0192 -30.38135,-9.9402 -39.76398,-15.6795 -3.97812,-2.4333 -7.43412,-4.3933 -7.68,-4.3554 -0.24589,0.038 -10.78436,4.0872 -23.41882,8.9985 z m 70.1354,389.13386 c -22.83174,3.8145 -35.45893,15.3638 -39.04287,35.7102 -3.00098,17.0368 5.69228,113.5243 15.62724,173.44847 4.24185,25.5854 3.3739,24.1145 8.49973,14.4046 12.4494,-23.58317 38.9896,-37.24927 64.111,-33.01197 19.7578,3.3326 38.0025,16.45407 45.8057,32.94317 2.0655,4.3646 4.0842,7.9646 4.486,8 0.7579,0.067 1.7642,-5.7492 6.9655,-40.25577 7.3421,-48.7103 12.4115,-104.1623 12.6388,-138.2527 l 0.1452,-21.7727 -4.2785,-8.7051 c -6.3251,-12.869 -15.2004,-18.7175 -33.4815,-22.0632 -10.8703,-1.9894 -70.2895,-2.3139 -81.4763,-0.445 z m 28.9963,200.0035 c -16.3672,3.77907 -29.8676,14.60737 -37.3916,29.99087 l -4.2083,8.6044 v 62.08 c 0,70.0287 -0.032,69.7517 9.7009,84.3268 10.1042,15.1311 24.6355,22.5642 44.059,22.5371 10.2589,-0.014 12.4621,-0.4606 20.1258,-4.0767 16.6866,-7.8737 26.9814,-21.366 31.0602,-40.7072 2.798,-13.268 2.7498,-110.2978 -0.061,-122.2227 -6.686,-28.3682 -35.6436,-46.91477 -63.2853,-40.53257 z m 23.4666,16.22527 c 8.5011,3.1807 15.5553,9.826 19.5598,18.426 l 3.0286,6.504 0.012,55.1555 0.013,55.1556 -3.8788,7.7621 c -11.0421,22.0973 -40.2442,26.3487 -56.5721,8.2362 -9.4756,-10.5112 -9.2301,-8.7724 -9.6784,-68.5597 -0.4714,-62.8842 -0.3847,-63.4944 10.586,-74.508 10.4453,-10.4862 23.2003,-13.3086 36.9299,-8.1717 z m -21.5466,8.2777 c -6.2829,2.2033 -13.7403,10.2547 -15.7686,17.0246 -1.0386,3.4667 -1.5114,19.2435 -1.5114,50.4367 v 45.3921 l 3.7834,5.712 c 5.2669,7.9515 12.7202,11.9245 22.4566,11.9706 9.6013,0.045 16.3326,-3.2383 22.1226,-10.7918 l 4.2026,-5.4827 -0.3626,-49.5559 -0.3626,-49.556 -3.6647,-5.2863 c -4.2948,-6.1952 -14.4479,-11.7986 -21.2266,-11.7149 -2.5018,0.031 -6.8527,0.8641 -9.6687,1.8516 z"
     id="path9"
     sodipodi:nodetypes="ssssssssssssssscsssssscscssssscsssscsscsssssssssscsssssscssssssssssscssssssssssssssscssscscssssscccsscccsssssssscssscccsss" /><path
     style="fill:#000000;stroke-width:1.64499"
     d="m 982.30456,261.77576 -8.4055,-7.36923 -6.9251,-10.78009 -6.925,-10.78011 -8.0863,-8.29683 -8.0863,-8.29683 -3.243,-7.56212 -3.2429,-7.56212 -2.2001,-22.51389 -2.2,-22.51388 v -12.06305 -12.06306 l 2.2089,-4.00528 2.2089,-4.00528 8.0592,-3.98988 8.0593,-3.98987 13.778,-2.50113 13.7781,-2.50113 14.9621,-4.40535 14.96204,-4.40536 h 48.0924 48.0924 l 13.3675,4.66697 13.3675,4.66696 h 6.1788 6.1785 l 13.6536,4.09237 13.6533,4.09237 4.9835,4.50538 4.9834,4.50537 -1.0407,33.40496 -1.0407,33.40495 -3.419,10.42761 -3.4193,10.4276 -7.6889,7.20316 -7.6891,7.20315 -7.375,11.7488 -7.375,11.7488 -7.4769,6.37054 -7.4768,6.37055 -5.4335,1.32338 -5.4334,1.32337 -8.0927,-1.05334 -8.0928,-1.05334 -9.0012,-5.78062 -9.0015,-5.7806 -9.552,4.50344 -9.552,4.50345 h -6.0834 -6.0835 l -9.9461,-4.26953 -9.9463,-4.26953 -11.4258,6.34373 -11.4256,6.34374 h -9.8865 -9.88654 z m 11.9556,-42.93033 6.53864,-6.74117 14.1585,-18.92361 14.1587,-18.92361 6.9746,-2.85557 6.9744,-2.85557 17.0995,0.11506 17.0995,0.11505 5.788,3.00848 5.7881,3.00847 19.2912,25.39681 19.2914,25.39684 h 5.2134 5.2135 l 2.7643,-7.77828 2.7641,-7.77828 0.073,-23.90475 0.073,-23.90477 -5.3531,-10.09849 -5.3533,-10.09849 -8.1629,-6.41129 -8.1628,-6.41128 -54.8819,-0.20779 -54.8821,-0.20778 -5.3436,1.86288 -5.34364,1.8629 -6.0737,5.57211 -6.0738,5.57212 -4.6134,8.29683 -4.6135,8.29683 0.1018,26.96469 0.1019,26.9647 2.5177,5.70407 2.5178,5.70407 h 3.9085 3.9085 z"
     id="path10"
     sodipodi:nodetypes="cccccccccccccccccccccccccccccccccccccccccccccccccccccccccccccccccccccccccccccccccccccccccccccccc" /><text
     xml:space="preserve"
     style="font-style:normal;font-variant:normal;font-weight:normal;font-stretch:normal;font-size:489.111px;line-height:1000%;font-family:'Bitstream Vera Sans';-inkscape-font-specification:'Bitstream Vera Sans';letter-spacing:0px;word-spacing:0px;fill:#ff0000;fill-opacity:1;stroke:#000000;stroke-width:16.6743px;stroke-linecap:butt;stroke-linejoin:miter;stroke-opacity:1"
     x="47.317936"
     y="919.90704"
     id="text1"
     transform="scale(0.96237971,1.0390909)"><tspan
       sodipodi:role="line"
       id="tspan1"
       style="font-style:normal;font-variant:normal;font-weight:normal;font-stretch:normal;font-family:'Bitstream Vera Sans';-inkscape-font-specification:'Bitstream Vera Sans';fill:#ff0000;fill-opacity:1;stroke:#000000;stroke-width:16.6743px;stroke-opacity:1"
       x="47.317936"
       y="919.90704">D</tspan></text><text
     xml:space="preserve"
     style="font-style:normal;font-variant:normal;font-weight:normal;font-stretch:normal;font-size:489.111px;line-height:1000%;font-family:'Bitstream Vera Sans';-inkscape-font-specification:'Bitstream Vera Sans';letter-spacing:0px;word-spacing:0px;fill:#ff0000;fill-opacity:1;stroke:#000000;stroke-width:16.6743px;stroke-linecap:butt;stroke-linejoin:miter;stroke-opacity:1"
     x="504.19595"
     y="912.98114"
     id="text1-3"
     transform="scale(0.96237971,1.0390909)"><tspan
       sodipodi:role="line"
       id="tspan1-7"
       style="font-style:normal;font-variant:normal;font-weight:normal;font-stretch:normal;font-family:'Bitstream Vera Sans';-inkscape-font-specification:'Bitstream Vera Sans';fill:#ff0000;fill-opacity:1;stroke:#000000;stroke-width:16.6743px;stroke-opacity:1"
       x="504.19595"
       y="912.98114">C</tspan></text><text
     xml:space="preserve"
     style="font-style:normal;font-variant:normal;font-weight:normal;font-stretch:normal;font-size:489.111px;line-height:1000%;font-family:'Bitstream Vera Sans';-inkscape-font-specification:'Bitstream Vera Sans';letter-spacing:0px;word-spacing:0px;fill:#ff0000;fill-opacity:1;stroke:#000000;stroke-width:16.6743px;stroke-linecap:butt;stroke-linejoin:miter;stroke-opacity:1"
     x="918.08356"
     y="919.90704"
     id="text1-8"
     transform="scale(0.96237971,1.0390909)"><tspan
       sodipodi:role="line"
       id="tspan1-9"
       style="font-style:normal;font-variant:normal;font-weight:normal;font-stretch:normal;font-family:'Bitstream Vera Sans';-inkscape-font-specification:'Bitstream Vera Sans';fill:#ff0000;fill-opacity:1;stroke:#000000;stroke-width:16.6743px;stroke-opacity:1"
       x="918.08356"
       y="919.90704">R</tspan></text></svg>
